<svg version="1.1" id="Layer_1" xmlns="http://www.w3.org/2000/svg" xmlns:xlink="http://www.w3.org/1999/xlink" x="0px" y="0px"
	 width="100%" viewBox="0 0 400 336" enable-background="new 0 0 400 336" xml:space="preserve">
<path fill="#ffffff" opacity="1.000000" stroke="none" 
	d="
M302.590942,24.245125 
	C308.605713,28.728964 311.150940,34.879215 312.271881,41.538181 
	C313.145996,46.730934 315.492432,49.141178 320.828339,48.698681 
	C324.494049,48.394680 326.759949,50.205132 327.664459,53.861206 
	C328.462067,57.085213 329.475586,60.257927 330.455292,63.434322 
	C332.474487,69.981140 337.439453,71.694710 342.942688,67.776787 
	C352.083923,61.268852 352.090210,61.262363 360.020844,68.969604 
	C363.007690,71.872307 365.886810,74.889755 368.946136,77.712799 
	C371.658386,80.215546 372.003815,82.642921 369.465424,85.466637 
	C368.022736,87.071480 366.759949,88.841461 365.457184,90.568024 
	C360.770142,96.779686 363.476501,103.406387 371.190826,104.615295 
	C372.011505,104.743904 372.858398,104.716354 373.673492,104.867439 
	C381.953766,106.402237 382.188141,106.788109 382.391174,115.153549 
	C382.483887,118.973900 383.071106,122.779686 383.267181,126.600639 
	C383.636108,133.790558 382.925659,134.637253 375.670990,136.360001 
	C374.215790,136.705582 372.756287,137.036575 371.311676,137.422714 
	C364.364349,139.279861 361.732239,145.473038 365.560822,151.488297 
	C373.101074,163.335083 373.006561,161.533218 362.739685,170.648407 
	C360.377014,172.746063 358.096985,174.960831 355.975922,177.300323 
	C353.480988,180.052216 350.926849,180.160675 348.076477,178.028900 
	C346.075073,176.532028 344.118744,174.971054 342.070770,173.541077 
	C337.452881,170.316635 332.522949,172.003204 330.886230,177.318542 
	C330.445984,178.748291 330.025787,180.184204 329.598541,181.617935 
	C326.944427,190.524277 326.953613,190.663452 317.671448,191.266891 
	C314.369293,191.481583 314.014893,193.302170 313.803406,195.842346 
	C312.875000,206.992996 312.760834,218.220779 313.568695,229.301910 
	C314.471802,241.690338 300.593842,258.579010 284.423981,258.389679 
	C263.929291,258.149719 243.429703,258.316833 222.932251,258.332855 
	C217.006805,258.337494 216.824493,258.587891 218.022552,264.229431 
	C219.092575,269.267975 220.424973,274.266541 221.176956,279.351440 
	C221.688583,282.811188 223.396851,283.745056 226.559235,283.666168 
	C231.888367,283.533203 237.225403,283.558044 242.555695,283.674011 
	C247.707733,283.786102 250.217758,286.153534 250.367340,290.740295 
	C250.521637,295.471222 247.870102,298.565613 243.072906,299.182556 
	C242.086380,299.309387 241.076584,299.280945 240.077515,299.280914 
	C197.916092,299.279266 155.754639,299.249847 113.593292,299.299500 
	C108.999489,299.304901 105.203560,298.212433 103.862267,293.358704 
	C102.484062,288.371399 105.830360,283.931396 111.119278,283.712219 
	C116.276894,283.498505 121.458664,283.449310 126.612198,283.696167 
	C130.327423,283.874146 131.957108,282.379242 132.802155,278.843750 
	C134.376816,272.255920 136.376907,265.769775 138.185547,259.292786 
	C135.749451,257.778412 133.538055,258.365906 131.460419,258.359589 
	C111.629715,258.299347 91.798325,258.399475 71.968025,258.291107 
	C57.263584,258.210785 45.418938,248.856201 42.219597,234.925415 
	C41.705891,232.688568 41.674278,230.306534 41.673206,227.991486 
	C41.645313,167.665482 41.646202,107.339455 41.653900,47.013432 
	C41.656029,30.324625 51.990730,19.744595 68.712074,19.702839 
	C108.540314,19.603374 148.368958,19.663286 188.197433,19.662502 
	C220.860107,19.661858 253.522781,19.671749 286.185455,19.663939 
	C291.956818,19.662558 297.433685,20.684828 302.590942,24.245125 
M165.500000,35.233761 
	C133.169144,35.215858 100.838295,35.182556 68.507446,35.190311 
	C59.856804,35.192387 56.385193,38.417004 56.377483,46.740395 
	C56.329029,99.070961 56.374950,151.401642 56.290581,203.732117 
	C56.284630,207.423889 57.566757,208.795929 61.240318,208.695038 
	C67.901512,208.512054 74.571320,208.643051 81.237534,208.642441 
	C151.566360,208.636047 221.895279,208.577911 292.223755,208.730164 
	C297.341278,208.741241 298.829742,207.225098 298.681244,202.201630 
	C298.346558,190.879227 298.603485,179.539917 298.574890,168.207581 
	C298.566528,164.890060 298.412659,161.523422 303.196869,161.743301 
	C307.123535,161.923752 310.565582,162.657944 310.411591,167.877487 
	C310.353973,169.831467 311.051605,171.799805 311.313354,173.773743 
	C311.507629,175.238998 311.998627,176.351990 313.654541,176.514465 
	C315.421082,176.687790 316.563690,175.789307 317.083466,174.219971 
	C317.971008,171.540146 318.785828,168.831558 319.501190,166.100998 
	C319.984497,164.256241 320.642609,162.338867 322.352631,161.592102 
	C327.684692,159.263611 333.280487,157.638672 339.006775,156.619873 
	C342.926483,155.922501 345.392578,158.982986 348.284424,160.825455 
	C349.579956,161.650864 350.649414,162.625061 352.212738,161.147995 
	C353.736389,159.708405 353.960693,158.141968 352.605530,156.784454 
	C346.574463,150.742874 347.659119,144.471054 351.614746,137.926132 
	C352.552002,136.375366 353.314667,134.637283 353.756561,132.884247 
	C355.078003,127.641907 358.555145,125.289879 363.692841,124.539398 
	C365.789673,124.233109 368.775146,124.311127 368.635498,120.859749 
	C368.498871,117.483551 365.538696,118.002739 363.449738,117.395790 
	C360.665314,116.586761 357.239105,117.023727 355.694916,113.750633 
	C353.059326,108.164253 349.997925,102.826759 346.715454,97.603065 
	C345.221527,95.225624 345.293884,92.930046 347.269897,90.747879 
	C348.608612,89.269524 349.876068,87.710403 351.024567,86.081108 
	C351.967010,84.744072 354.333008,83.682289 352.411346,81.515617 
	C350.531677,79.396248 348.556854,80.533791 347.231384,82.017296 
	C342.883636,86.883316 338.282654,86.991776 333.118622,83.466240 
	C331.907440,82.639359 330.426483,82.067146 328.987274,81.738144 
	C321.168640,79.950790 317.022064,75.202469 316.806854,67.109810 
	C316.734924,64.405586 316.238708,62.165909 312.629456,62.290569 
	C309.049622,62.414215 309.309570,64.973358 309.187622,67.225342 
	C308.824280,73.935127 305.702728,78.310959 299.100006,80.281227 
	C296.418640,81.081352 293.859955,82.451859 291.421021,83.865707 
	C288.208679,85.727921 285.185181,85.797592 281.998535,83.913895 
	C277.566925,81.294258 273.454376,78.702835 268.018280,82.773613 
	C265.257263,84.841148 261.591705,82.919174 259.060760,80.341255 
	C257.575470,78.828369 256.455811,77.085800 257.838379,75.013268 
	C261.179993,70.003990 266.332245,67.033951 271.346466,64.207573 
	C274.907776,62.200169 277.932251,65.526505 280.878815,67.186989 
	C288.238373,71.334328 294.261322,68.730225 296.124329,60.395866 
	C296.704529,57.800385 297.390411,55.218666 297.790466,52.594456 
	C299.822998,39.261871 294.870422,34.948196 284.490631,35.067135 
	C245.164917,35.517769 205.830887,35.242916 165.500000,35.233761 
M115.499908,243.632034 
	C142.653610,243.635696 169.807297,243.641983 196.960999,243.642288 
	C225.613907,243.642624 254.266876,243.671967 282.919678,243.614075 
	C291.983795,243.595779 298.264343,238.144989 298.650787,230.256805 
	C298.984619,223.442856 298.903931,223.344330 291.933289,223.343842 
	C234.627655,223.339890 177.322037,223.342560 120.016411,223.342194 
	C100.859001,223.342072 81.701599,223.333969 62.544193,223.340042 
	C56.375198,223.342010 55.389950,224.501801 56.554287,230.294327 
	C58.172920,238.346954 64.590065,243.519424 73.519844,243.595490 
	C87.178963,243.711838 100.839783,243.629364 115.499908,243.632034 
M158.812363,258.328735 
	C156.915634,258.552246 154.236145,257.453217 153.394257,259.751251 
	C150.630661,267.294678 148.321777,274.997284 146.748047,283.580627 
	C166.313232,283.580627 185.105652,283.618347 203.897598,283.540771 
	C206.784485,283.528839 206.795166,281.324860 206.396210,279.184845 
	C205.422195,273.960358 204.272308,268.763855 203.469406,263.513855 
	C202.847672,259.448303 200.844513,258.146606 196.731995,258.233215 
	C184.405304,258.492767 172.069656,258.327240 158.812363,258.328735 
z"/>
<path fill="#ffffff" opacity="1.000000" stroke="none" 
	d="
M183.053268,57.282681 
	C210.353745,70.209473 237.271317,82.967522 264.205475,95.690430 
	C268.031708,97.497810 271.246185,99.868477 271.230072,104.494080 
	C271.213135,109.361969 267.775696,111.617126 263.752594,113.452820 
	C256.334167,116.837753 249.116257,120.673965 241.631775,123.897163 
	C237.944550,125.485069 236.801865,127.745018 236.877106,131.565002 
	C237.077118,141.721130 236.782578,151.887421 237.009125,162.042435 
	C237.187180,170.022659 233.852249,175.592636 227.107880,179.734131 
	C215.122681,187.093842 201.777161,189.893936 188.163116,190.994217 
	C169.380341,192.512222 150.964569,190.294739 133.587463,182.299179 
	C130.549484,180.901352 127.708626,179.174759 125.132477,177.034180 
	C121.491241,174.008545 119.458847,170.398270 119.575195,165.381790 
	C119.822296,154.727325 119.648224,144.063080 119.645905,133.402847 
	C119.643967,124.485809 119.323959,124.100624 109.349709,121.864700 
	C109.349709,127.427711 109.351463,132.828049 109.349152,138.228394 
	C109.347366,142.392532 109.432106,146.559311 109.311569,150.720093 
	C109.175377,155.421188 106.523041,158.243347 102.443230,158.292450 
	C98.394386,158.341171 95.721405,155.503601 95.682617,150.739944 
	C95.597168,140.246964 95.487526,129.749191 95.727409,119.261147 
	C95.815414,115.413246 94.771233,112.852974 91.098312,111.471176 
	C87.216530,110.010811 85.293953,107.057083 85.407829,102.977356 
	C85.517052,99.064377 87.753029,96.627998 91.315468,95.111626 
	C117.974579,83.764053 143.889999,70.820831 170.007782,58.313251 
	C174.128708,56.339783 178.339432,56.311615 183.053268,57.282681 
M246.947708,104.381844 
	C246.899643,103.135094 245.876572,102.790054 245.004120,102.385994 
	C223.715836,92.526619 202.417038,82.689957 181.128510,72.831108 
	C178.222931,71.485512 175.561523,71.592751 172.587296,73.039757 
	C152.988251,82.575012 133.306229,91.939552 113.677933,101.415047 
	C112.300385,102.080048 110.403198,102.310776 110.036171,104.306526 
	C110.322525,104.606049 110.507309,104.929878 110.784981,105.071167 
	C131.705200,115.716164 153.264267,124.974770 174.700729,134.499283 
	C177.395660,135.696671 180.103790,135.964066 182.889206,134.660782 
	C204.130478,124.722023 225.383026,114.807381 246.947708,104.381844 
M221.090500,165.112015 
	C222.574768,154.765244 221.480927,144.445465 221.668060,133.949341 
	C217.868057,134.286087 215.406113,135.735947 212.851624,136.869827 
	C203.880463,140.851959 194.929153,144.878967 185.981705,148.914261 
	C180.325500,151.465210 174.887894,151.363312 169.194672,148.599152 
	C159.616302,143.948685 149.841904,139.700745 140.129974,135.327850 
	C138.523071,134.604324 136.961288,133.449066 134.385193,134.288101 
	C134.385193,141.430862 134.374832,148.712265 134.387680,155.993637 
	C134.406158,166.469391 134.748322,166.956024 144.629333,170.804977 
	C145.403671,171.106613 146.187042,171.388107 146.976654,171.647095 
	C162.417603,176.711884 178.219528,178.000946 194.216446,175.442596 
	C203.571762,173.946411 212.906616,171.943695 221.090500,165.112015 
z"/>
<path fill="#ffffff" opacity="1.000000" stroke="none" 
	d="
M322.382233,146.833832 
	C304.210602,151.073349 290.127533,143.207230 285.534241,126.618484 
	C281.362579,111.552429 291.194977,95.725304 307.006531,92.054825 
	C322.166992,88.535492 338.426941,98.799377 341.269897,113.683182 
	C344.073853,128.362457 337.317871,140.404724 322.382233,146.833832 
M301.165955,128.235397 
	C302.199677,129.302399 303.097900,130.561554 304.290863,131.402756 
	C309.141632,134.823227 314.347595,135.478043 319.734161,132.760880 
	C324.757233,130.227112 328.191772,124.223373 327.574493,118.820992 
	C326.901794,112.933327 323.950226,108.619385 318.208588,106.478844 
	C312.659302,104.410034 306.161255,105.892441 302.272675,110.163681 
	C297.906525,114.959503 297.410309,120.583794 301.165955,128.235397 
z"/>
</svg>